<?xml version="1.0" encoding="UTF-8" standalone="no"?>
<!-- Created with Inkscape (http://www.inkscape.org/) -->

<svg
   width="150mm"
   height="150mm"
   viewBox="0 0 150 150"
   version="1.1"
   id="svg236"
   inkscape:version="1.2.2 (b0a8486, 2022-12-01)"
   sodipodi:docname="noodle-icon.svg"
   xmlns:inkscape="http://www.inkscape.org/namespaces/inkscape"
   xmlns:sodipodi="http://sodipodi.sourceforge.net/DTD/sodipodi-0.dtd"
   xmlns="http://www.w3.org/2000/svg"
   xmlns:svg="http://www.w3.org/2000/svg">
  <sodipodi:namedview
     id="namedview238"
     pagecolor="#505050"
     bordercolor="#eeeeee"
     borderopacity="1"
     inkscape:showpageshadow="0"
     inkscape:pageopacity="0"
     inkscape:pagecheckerboard="0"
     inkscape:deskcolor="#505050"
     inkscape:document-units="mm"
     showgrid="false"
     inkscape:zoom="0.89263468"
     inkscape:cx="261.58518"
     inkscape:cy="206.6915"
     inkscape:window-width="3770"
     inkscape:window-height="2096"
     inkscape:window-x="1990"
     inkscape:window-y="27"
     inkscape:window-maximized="1"
     inkscape:current-layer="layer1" />
  <defs
     id="defs233" />
  <g
     inkscape:label="Layer 1"
     inkscape:groupmode="layer"
     id="layer1"
     transform="translate(-35.793286,-94.059125)">
    <path
       style="fill:#050505;stroke:none;stroke-width:0.270214"
       d="m 64.943242,196.85804 c 0.25422,2.01173 -0.29377,5.20943 0.4708,6.99635 0.52245,1.22109 2.22044,1.51454 3.19521,0.64878 2.7656,-2.45623 -0.48287,-7.26656 0.32693,-10.03003 0.57691,-1.96931 4.46743,-4.10993 5.84849,-5.72148 2.04362,-2.38544 3.97077,-4.90382 5.16836,-7.83617 1.5294,-3.74542 2.08415,-8.27365 6.06681,-10.3124 4.70657,-2.40922 10.12433,1.5467 14.321278,3.47358 9.58201,4.39934 19.15808,9.80386 29.99362,9.81116 0.7166,5.54909 1.64829,10.85661 1.621,16.48298 -0.017,3.54708 -1.39727,7.3052 -1.03356,10.80851 0.24887,2.39571 1.66586,4.64334 2.72185,6.75532 0.6985,1.397 1.33999,3.50385 2.66376,4.43068 1.88554,1.31971 6.90204,0.49989 9.15886,0.42909 0.93602,-0.0295 1.86906,-0.19293 2.34193,-1.10625 1.58183,-3.05286 -3.28822,-5.14269 -4.47958,-7.02418 -1.73423,-2.73861 -1.01789,-6.66912 -0.81037,-9.69955 0.53745,-7.84833 -0.0686,-16.65592 1.71261,-24.31915 1.05437,-4.53552 4.17857,-8.25906 5.12647,-12.97022 1.15922,-5.76147 0.31804,-11.59996 2.06038,-17.29361 1.28756,-4.20803 2.95261,-8.30634 5.08972,-12.15958 0.65473,-1.18029 1.43835,-3.34874 2.76779,-3.89025 1.36134,-0.55421 3.16528,-0.0127 4.56552,0.083 3.16743,0.21698 6.92906,0.8382 9.99787,-0.17834 2.20926,-0.73174 7.39437,-4.74872 5.89226,-7.60517 -1.52778,-2.90576 -8.06423,-3.09931 -10.72799,-4.69619 -2.60431,-1.56129 -2.48974,-4.57711 -5.97278,-5.33003 -3.68138,-0.79583 -9.02403,-2.95094 -12.7,-1.49179 -2.70645,1.07434 -4.05319,4.05873 -5.58449,6.35562 -3.11366,4.67063 -6.16382,9.38098 -9.27721,14.05107 -1.54103,2.31166 -2.96072,5.13485 -5.67447,6.23353 -3.07205,1.24406 -6.99959,1.25352 -10.26809,1.64452 -8.50278,1.01762 -16.89559,0.75092 -25.399988,1.3335 -3.99375,0.27345 -7.99182,0.49908 -11.88937,1.52535 -2.97369,0.78281 -5.95251,2.49595 -8.91702,3.05529 -5.99332,1.13057 -11.95951,0.009 -17.2934,3.90404 -6.49697,4.74439 -5.2618,14.45827 -2.3479,20.94419 2.00403,4.46067 4.61528,7.07795 3.91997,12.15957 -0.37765,2.75996 -2.64011,4.16425 -4.81484,5.51883 -3.30654,2.05956 -7.16307,4.12561 -9.66594,7.18117 -1.3155,1.60615 -0.86923,3.99591 -0.87236,5.94469 -0.006,3.83377 0.10204,8.08071 -0.34735,11.88936 -0.18962,1.60695 -0.79252,4.56227 0.46453,5.85875 0.74075,0.76416 1.88469,0.62581 2.85516,0.62635 2.49601,0.001 5.37816,0.39992 7.83201,-0.0616 4.91177,-0.92413 -1.52967,-6.53212 -1.97031,-7.82428 -0.55274,-1.62128 0.39805,-4.56281 0.82191,-6.16517 1.88109,-7.11092 7.2882,-8.90757 13.04192,-12.42979 M 153.03261,118.7666 c -0.67959,1.35228 -1.21191,3.26581 0.81199,3.82321 1.68612,0.46439 2.64835,-1.79932 3.89619,-2.45402 1.05897,-0.55545 3.40712,0.22004 4.46689,0.61509 2.26871,0.84557 -0.71255,3.15162 1.133,4.62823 1.10571,0.88462 2.72105,0.26445 4.0132,0.55585 2.48083,0.5594 4.8768,1.77081 7.29575,2.55929 -2.62485,3.5325 -10.44427,1.97472 -14.32128,1.46564 -1.35079,-0.17726 -2.79805,0.0597 -4.05292,-0.57069 -1.81961,-0.9144 -2.78319,-3.8945 -4.86437,-4.1696 -1.49481,-0.19763 -2.37814,1.49184 -1.86582,2.73423 0.86928,2.10766 3.01314,3.88728 4.83843,5.13404 -1.58209,4.99947 -4.91814,9.48879 -6.55374,14.59149 -2.08901,6.5178 -1.29054,13.15233 -2.69051,19.72553 -0.90224,4.23667 -3.66246,7.54191 -4.83113,11.61915 -1.4905,5.1997 -1.10193,11.37649 -1.33728,16.75319 -0.34453,7.86319 -2.11577,15.56047 1.3616,22.96808 -2.75374,-0.0916 -5.12189,-6.1549 -5.12621,-8.64681 -0.006,-3.65921 0.86576,-7.38761 0.95007,-11.07872 0.13105,-5.74337 -0.68364,-11.70832 -2.00741,-17.29361 -1.07167,-4.5212 -2.52325,-8.9708 -4.3588,-13.24043 -0.61555,-1.43186 -2.31735,-3.5614 -3.86891,-1.78394 -0.95385,1.09274 -0.25643,2.52837 0.19807,3.67543 1.19001,3.00233 2.40462,6.03277 3.13447,9.18723 -9.37612,-0.001 -18.24883,-5.01433 -26.48086,-8.98673 -5.698778,-2.75023 -11.114388,-6.06601 -17.563828,-4.25369 0.23914,-1.34566 2.46002,-6.24651 -1.07977,-5.61016 -1.85447,0.33317 -2.59971,3.31308 -3.18851,4.79952 -1.9539,4.93192 -3.02881,10.46399 -5.54287,15.13191 -3.17743,5.89929 -8.6975,10.07219 -14.23778,13.59306 -5.83773,3.70975 -10.52663,5.55017 -12.88015,12.61758 -1.18421,3.556 -2.57038,9.01457 -0.63049,12.42979 h -1.62128 c 0,-4.15885 0.27022,-8.27635 0.27022,-12.42979 0,-1.78367 -0.38055,-4.1202 0.69282,-5.67041 3.26739,-4.71954 10.19997,-5.6234 13.42287,-10.54235 1.70724,-2.60566 1.3241,-5.451 1.60253,-8.3766 0.69493,-7.3025 -0.22585,-15.89418 4.35572,-22.15745 8.38081,-11.45729 23.67377,-10.54397 36.130308,-11.08926 6.03683,-0.26454 12.09959,-0.79604 18.10426,-1.53372 3.58167,-0.44018 7.72889,-0.48639 11.07872,-1.93608 3.1804,-1.37619 5.00083,-4.29098 6.8453,-7.05796 2.81345,-4.22018 5.56314,-8.47954 8.37659,-12.69999 1.51644,-2.27455 3.2177,-6.49448 6.12492,-7.02553 m -86.738298,35.12765 c -1.50898,2.14414 -3.42903,3.90944 -4.74791,6.21489 -2.2897,4.0024 -3.05051,9.21939 -3.08826,13.78086 h -0.27021 c -2.40417,-5.07973 -5.04304,-13.38607 0.54042,-17.39171 2.26768,-1.62668 4.94765,-1.92662 7.56596,-2.60404 z"
       id="path170" />
  </g>
</svg>
